<svg xmlns="http://www.w3.org/2000/svg" width="61.58" height="61.566" viewBox="0 0 61.58 61.566">
  <path id="Icon_awesome-instagram" data-name="Icon awesome-instagram" d="M30.791,17.236A15.785,15.785,0,1,0,46.576,33.021,15.76,15.76,0,0,0,30.791,17.236Zm0,26.047A10.262,10.262,0,1,1,41.054,33.021,10.281,10.281,0,0,1,30.791,43.283ZM50.9,16.59a3.682,3.682,0,1,1-3.682-3.682A3.673,3.673,0,0,1,50.9,16.59Zm10.454,3.737c-.234-4.932-1.36-9.3-4.973-12.9S48.417,2.7,43.485,2.454c-5.083-.288-20.318-.288-25.4,0-4.918.234-9.287,1.36-12.9,4.959S.458,15.381.211,20.313c-.288,5.083-.288,20.318,0,25.4.234,4.932,1.36,9.3,4.973,12.9s7.968,4.726,12.9,4.973c5.083.288,20.318.288,25.4,0,4.932-.234,9.3-1.36,12.9-4.973s4.726-7.968,4.973-12.9c.288-5.083.288-20.3,0-25.387ZM54.791,51.168a10.39,10.39,0,0,1-5.852,5.852c-4.053,1.607-13.669,1.236-18.148,1.236s-14.109.357-18.148-1.236a10.39,10.39,0,0,1-5.852-5.852C5.184,47.116,5.555,37.5,5.555,33.021S5.2,18.912,6.791,14.873a10.39,10.39,0,0,1,5.852-5.852C16.7,7.413,26.313,7.784,30.791,7.784S44.9,7.427,48.939,9.021a10.39,10.39,0,0,1,5.852,5.852c1.607,4.053,1.236,13.669,1.236,18.148S56.4,47.129,54.791,51.168Z" transform="translate(0.005 -2.238)" fill="#fff"/>
</svg>
