<svg xmlns="http://www.w3.org/2000/svg" width="71.7" height="56.404" viewBox="0 0 71.7 56.404">
  <g id="Icon_feather-youtube" data-name="Icon feather-youtube" transform="translate(0.001 -4.5)">
    <path id="Path_1" data-name="Path 1" d="M68.761,14.36A9.227,9.227,0,0,0,62.7,7.451C57.333,6,35.849,6,35.849,6S14.366,6,9,7.589A9.227,9.227,0,0,0,2.937,14.5,110.552,110.552,0,0,0,1.5,32.771,110.554,110.554,0,0,0,2.937,51.183,9.176,9.176,0,0,0,9,57.815C14.366,59.4,35.849,59.4,35.849,59.4s21.483,0,26.854-1.589a9.227,9.227,0,0,0,6.058-6.909A110.547,110.547,0,0,0,70.2,32.771,110.551,110.551,0,0,0,68.761,14.36Z" transform="translate(0 0)" fill="none" stroke="#fff" stroke-linecap="round" stroke-linejoin="round" stroke-width="3"/>
    <path id="Path_2" data-name="Path 2" d="M14.625,35.312l19.863-11.3L14.625,12.72Z" transform="translate(13.171 8.756)" fill="none" stroke="#fff" stroke-linecap="round" stroke-linejoin="round" stroke-width="3"/>
  </g>
</svg>
